<svg xmlns="http://www.w3.org/2000/svg" xmlns:xlink="http://www.w3.org/1999/xlink" viewBox="0 0 351.99 495.88"><defs><style>.cls-1{fill:none;}.cls-2{fill:#d88228;}.cls-3{fill:#71a341;}.cls-4{fill:#d54327;}.cls-5{fill:#6f3415;}.cls-6{fill:#e6cfac;}.cls-7{fill:#e9ae21;}.cls-8{clip-path:url(#clip-path);}.cls-9{fill:#fdf391;}</style><clipPath id="clip-path"><path class="cls-1" d="M164.07,5.88h23.85a154,154,0,0,1,154,154v0A12.14,12.14,0,0,1,329.77,172H22.22a12.14,12.14,0,0,1-12.14-12.14v0a154,154,0,0,1,154-154Z"/></clipPath></defs><title>Logo</title><g id="Layer_2" data-name="Layer 2"><g id="Layer_1-2" data-name="Layer 1"><path class="cls-2" d="M164.07,5.88h23.85a154,154,0,0,1,154,154v0A12.14,12.14,0,0,1,329.77,172H22.22a12.14,12.14,0,0,1-12.14-12.14v0a154,154,0,0,1,154-154Z"/><rect class="cls-2" x="8.28" y="443.78" width="331.83" height="52.1" rx="25.2"/><path class="cls-3" d="M24.18,431.6c-9,4.88-26.49,17.22-23.78,27.18C2.48,466.4,16.27,472.06,26.45,469c11.81-3.59,12.25-17,23.78-19.25,6-1.2,8.4,2,19.26,5.66,2,.68,11.48,7.41,30.36,5.06s27.76-11.48,45.52-11.86c6.18-.13,19.34-.41,29.44,7.93,5.41,4.47,5.57,7.27,14.58,9,7.45,1.41,8-5.19,20.53-11.23,3.8-1.84,7.85-6.52,19.49-6.36,19.7.26,24.66,15.05,38.27,12.14,12.51-2.68,21.29-11.51,32.05-12,11.7-.55,13.3,10.47,28,11.89,9.77.94,21.56-4.94,23.79-13.59,2.4-9.37-7.26-18.63-7.93-19.25-13-12.15-34.93-8.89-56.63-5.67-20.57,3.06-20.05,6.2-35.11,6.8-16,.64-18.31-2.86-43-4.53a266.52,266.52,0,0,0-37.38,0c-21.59,1.66-21.16,4.66-35.1,4.53-18.08-.17-19.56-5.21-41.91-6.8a166.06,166.06,0,0,0-32.84,1.13C45,424.49,35.14,425.64,24.18,431.6Z"/><rect class="cls-4" x="10.08" y="404.62" width="331.83" height="26.05" rx="9.8"/><rect class="cls-5" x="10.08" y="354.69" width="331.83" height="52.1" rx="25.2"/><path class="cls-6" d="M27.66,360.4c5.56,10.43,10.88,13.09,14.72,13.59,9.63,1.23,14.71-10.57,24.92-9.06,7.82,1.15,12.75,9.23,14.72,12.45,3.69,6.05,3.32,9.95,5.67,21.52,2.85,14.07,8,20.26,11.9,20.64,4.33.43,7-8,14.14-26.3,5.87-14.89,7.35-21.55,12.46-22.65,5.52-1.19,7.89,5.69,19.26,7.93,2.49.49,9.63,1.8,17-1.14,9.14-3.64,9.43-10.18,14.73-10.19,5.08,0,6.46,6,18.12,17,6.53,6.14,9.87,9.21,13.59,9.06,7.8-.32,15.06-10.8,19.32-19.82,5.13-10.86,5.82-10.51,5-13Z"/><rect class="cls-6" x="10.08" y="347.04" width="331.83" height="16.82" rx="7.87"/><rect class="cls-4" x="10.08" y="321.92" width="331.83" height="26.05" rx="9.8"/><path class="cls-7" d="M114.05,316.71c43,36.47,100,50.65,103.7,52.58,5.12,2.67,8.29.18,8.29.18,20.73-7.6,37.61-15.43,110.81-54.11C298.79,316.81,152.11,315.26,114.05,316.71Z"/><rect class="cls-7" x="10.08" y="301.81" width="331.83" height="19.56" rx="8.49"/><path class="cls-3" d="M327,282.91c9,4.78,25.31,13.95,22.71,23.94-2,7.64-1.21,21.86-11.42,18.88-11.84-3.45-17.67-7.41-29.22-9.57-6-1.12-14-3.69-24.8.12-2,.71-11.41,7.54-30.31,5.4s-9.46-.74-30.13-7c-5.92-1.8,0,0-17.93-4-6.85-1.52-19.38,10.92-28.37,12.72-7.44,1.49-21.1-.78-33.7-6.69-3.82-1.79-7.92-6.43-19.56-6.14-19.69.48-24.49,15.32-38.13,12.56C73.61,320.57,64.74,311.83,54,311.45c-11.7-.41-13.18,10.62-27.83,12.2C16.37,324.7,4.52,319,2.2,310.32c-2.52-9.34,19.29-25.62,20-26.25,12.89-12.29,22.59-2.36,44.32.63,20.61,2.83,20.12,6,35.18,6.41,16.06.46,18.28-3.07,43-5a268.12,268.12,0,0,1,37.37-.41c21.61,1.43,21.21,4.43,35.15,4.15,18.07-.37,19.5-5.43,41.83-7.26a165.25,165.25,0,0,1,32.85.77C308.47,285.12,316,277.07,327,282.91Z"/><rect class="cls-5" x="10.08" y="239.23" width="331.83" height="52.1" rx="25.2"/><rect class="cls-6" x="10.08" y="231.57" width="331.83" height="16.82" rx="7.87"/><path class="cls-6" d="M33.48,240.17c-.29,3,11.88,25.56,20.67,26.33,10.25.89,13-16.08,27.36-17.23,5.27-.42,11.57-.93,17.53,3,9.59,6.26,12,19.78,12.33,21.48,1.3,7.71-.82,10.59,1.94,15a14.82,14.82,0,0,0,13.91,6.59c8.74-1.22,13.38-12.17,17-20.69,4.87-11.49-5.25,7.79,0,0,3.5-5.19,9.57-13.61,13.85-11.78,1,.42,7.74-.92,9.12,14.52,1.33,14.83,0,0,1.29,11.6.33,2.95,2.34,21,9.95,22.67,5.68,1.23,12.81-7,15.66-14.51.72-1.92,1-3.47,1.71-19.86.51-12.75.48-16,2.88-19.83,2.2-3.52,6.89-8.23,10.76-7.17,4.91,1.35,3,10.47,10.09,17.69,4.43,4.51,12.29,8.17,17.46,5.45,6.45-3.4,3.15-13.86,9.88-18.39,6.16-4.15,17.31-1.07,22.15,5.57,3.68,5,7,8,5.37,18.81-1.93,12.89,5.11,12.57,9,12.68h0s27.44-2.26,25-24.7c-1.22-11.14,3.75-23.39,6.51-30.58C94.51,225.58,34.15,233.3,33.48,240.17Z"/><rect class="cls-4" x="10.08" y="206.13" width="331.83" height="26.05" rx="9.8"/><rect class="cls-7" x="10.08" y="187.98" width="331.83" height="19.56" rx="8.49"/><path class="cls-7" d="M10.3,200.72C22.82,240.76,38.54,255,54.69,269c5.73,5,38.13-10.69,45-14,18.31-8.79,48.11-13.41,108.2-53.46C170.61,202.78,47.56,199.45,10.3,200.72Z"/><path class="cls-3" d="M327.28,169.63c9.1,4.65,26.93,16.53,24.48,26.55-1.88,7.68-15.52,13.7-25.77,10.87-11.9-3.28-7-11-18.58-13-6.06-1-14.05-3.48-24.8.5-2,.73-11.29,7.71-30.23,5.85s-28-10.75-45.8-10.66c-6.18,0-19.35.09-29.23,8.69-5.29,4.6-5.38,7.41-14.34,9.34-7.41,1.6-8.13-5-20.82-10.69-3.84-1.73-8-6.31-19.65-5.85-19.68.78-24.25,15.69-37.94,13.14C72,202.06,63,193.46,52.25,193.24c-11.71-.24-13,10.82-27.65,12.61-9.74,1.2-21.68-4.37-24.13-13-2.65-9.31,6.77-18.81,7.42-19.45,12.7-12.49,34.68-9.8,56.46-7.14C85,168.82,84.56,172,99.63,172.17c16.06.22,18.23-3.33,42.9-5.65a267.36,267.36,0,0,1,37.36-1c21.63,1.1,21.28,4.1,35.21,3.61,18.06-.64,19.41-5.72,41.72-7.89a165.62,165.62,0,0,1,32.86.28C306.33,163.07,316.17,164,327.28,169.63Z"/><g class="cls-8"><path class="cls-9" d="M223.49,41.38c6.3,0-2.1-18.5-8.58-18.5-6.3,0,2.1,18.5,8.58,18.5Z"/><path class="cls-9" d="M203,109.32c3,0,11.07.34,12.78-2.89s-6.23-3.51-7.52-3.51c-3,0-11.07-.35-12.79,2.89s6.24,3.51,7.53,3.51Z"/><path class="cls-9" d="M109.49,106.38c2.62,0,9.21-.13,8.15-4.33-1-3.79-9.27-5.25-12.22-5.25-2.62,0-9.21.12-8.15,4.32,1,3.8,9.27,5.26,12.22,5.26Z"/><path class="cls-9" d="M150.47,64.65c4.42,0-1.79-3.46-2.69-3.88C143.64,58.83,138.55,57,133.9,57c-4.41,0,1.79,3.45,2.69,3.87,4.14,1.94,9.23,3.79,13.88,3.79Z"/><path class="cls-9" d="M159.59,35.47c4.87,0,1.27-5.6-.34-7.13a20,20,0,0,0-13.33-5.6c-4.87,0-1.27,5.61.35,7.13a19.9,19.9,0,0,0,13.32,5.6Z"/><path class="cls-9" d="M263.91,80.33c2.47,0,6.38-.75,5.91-4-.43-3-5.18-4.78-7.75-4.78s-6.38.76-5.91,4c.43,3,5.18,4.78,7.75,4.78Z"/><path class="cls-9" d="M135.26,135.76c2.83,0,7.32-1.5,8.69-4.22s-1.62-3.72-3.89-3.72c-2.84,0-7.32,1.49-8.69,4.22s1.61,3.72,3.89,3.72Z"/><path class="cls-9" d="M303.54,146.17c9.14,0,4.27-10.64-2.57-10.64-9.15,0-4.28,10.64,2.57,10.64Z"/><path class="cls-9" d="M116.6,36.06c1.43,0,7-.39,6.91-2.67s-5.88-2.18-7.08-2.18c-1.43,0-7,.39-6.91,2.67s5.88,2.18,7.08,2.18Z"/><path class="cls-9" d="M184.65,70.81c3.24,0,2.65-3.5,1.58-5.47-1.44-2.63-4.82-5.46-8-5.46s-2.66,3.51-1.59,5.47c1.44,2.63,4.82,5.46,8,5.46Z"/><path class="cls-9" d="M221.71,130.77a16.34,16.34,0,0,0,9-3.31c.91-.65,4.2-3.71,1.06-3.71a16.41,16.41,0,0,0-9,3.3c-.91.66-4.2,3.72-1.06,3.72Z"/><path class="cls-9" d="M267.29,49c2.87,0-1.78-1.74-2.17-1.86a32,32,0,0,0-9.45-1.63c-2.87,0,1.78,1.74,2.17,1.87A32.31,32.31,0,0,0,267.29,49Z"/><path class="cls-9" d="M156.64,101.41c3,0-.93-2.57-1.6-2.94a20.46,20.46,0,0,0-9.19-2.74c-3,0,.94,2.57,1.6,2.93a20.48,20.48,0,0,0,9.19,2.75Z"/><path class="cls-9" d="M92.68,64.86c2.52,0,7.4-1.18,8-4.17s-3.4-3.92-5.64-3.92c-2.52,0-7.4,1.19-8,4.18s3.41,3.91,5.64,3.91Z"/><path class="cls-9" d="M88.35,142c8.56,0,2.13-11.32-4.07-11.32-8.56,0-2.13,11.32,4.07,11.32Z"/><path class="cls-9" d="M173.91,149.15c2.64,0,2.43-.93.53-2.17-2.46-1.6-6.7-2.35-9.62-2.35-2.63,0-2.43.93-.53,2.17,2.47,1.59,6.71,2.35,9.62,2.35Z"/><path class="cls-9" d="M323.28,103.69c2.38,0-1.36-4.76-1.73-5.2-1.52-1.8-4.46-5-7.11-5-2.37,0,1.36,4.77,1.73,5.21,1.52,1.8,4.46,5,7.11,5Z"/><path class="cls-9" d="M205.51,62.46c3.25,0,2-5.16,1.26-6.76-1.25-2.77-3.89-5.59-7.11-5.59s-2,5.17-1.26,6.77c1.26,2.77,3.89,5.58,7.11,5.58Z"/><path class="cls-9" d="M186.41,32.76a10.05,10.05,0,0,0,8.36-5.29c1.27-2.76-.1-5-3.18-5a10,10,0,0,0-8.37,5.29c-1.26,2.75.11,5,3.19,5Z"/><path class="cls-9" d="M242,81.34c6,0-2.07-10.84-6.28-10.84-6,0,2.07,10.84,6.28,10.84Z"/><path class="cls-9" d="M218,88.8c3.19,0,.21-3.38-.73-4.16a14.87,14.87,0,0,0-9-3.48c-3.19,0-.21,3.38.73,4.16a14.82,14.82,0,0,0,9,3.48Z"/><path class="cls-9" d="M83.46,93.53c2.33,0,7-1.25,6.83-4.3s-4.91-3.75-7.16-3.75-6.95,1.26-6.83,4.31,4.91,3.74,7.16,3.74Z"/><path class="cls-9" d="M122.68,77.82c2.52,0,2.38-.66.37-1.72A23.12,23.12,0,0,0,113.37,74c-2.52,0-2.37.66-.37,1.73a23.11,23.11,0,0,0,9.68,2.08Z"/><path class="cls-9" d="M81.88,47.63c2,0,6.1-1.05,5.19-3.81s-6.2-3-8.4-3c-2,0-6.1,1.06-5.19,3.82s6.2,3,8.4,3Z"/><path class="cls-9" d="M276.62,151.94c1.21,0,7-.14,7-2.16s-6.1-1.9-7-1.9c-1.21,0-7,.14-7,2.16s6.1,1.9,7,1.9Z"/><path class="cls-9" d="M286,89c3,0,7.34-.79,9-3.64,1.52-2.67-1.21-4.31-3.68-4.31-3,0-7.34.8-9,3.65-1.52,2.67,1.21,4.3,3.68,4.3Z"/><path class="cls-9" d="M288.48,59.44c1.73,0,6.12,0,5.46-2.76-.6-2.5-6.2-3.55-8.12-3.55-1.73,0-6.12,0-5.45,2.77.59,2.49,6.19,3.54,8.11,3.54Z"/><path class="cls-9" d="M243.08,37.92c2.45,0,6.29-1.25,5.61-4.38s-5.52-4.18-8.08-4.18-6.28,1.25-5.6,4.37,5.51,4.19,8.07,4.19Z"/><path class="cls-9" d="M265.22,31.72c1.72,0-1.28-4.38-1.62-4.89-.87-1.34-3.84-6.37-5.86-6.37-1.72,0,1.28,4.37,1.62,4.88.87,1.34,3.84,6.38,5.86,6.38Z"/><path class="cls-9" d="M182.45,9.89c3.14,0,7.31-1.5,8.5-4.72,1.12-3-1.59-5.17-4.46-5.17-3.15,0-7.31,1.5-8.5,4.72-1.12,3.05,1.58,5.17,4.46,5.17Z"/><path class="cls-9" d="M154.38,15.72c7.5,0,2.32-12.48-3.25-12.48-7.49,0-2.32,12.48,3.25,12.48Z"/><path class="cls-9" d="M107.34,19.81c3,0,.66-3-.37-4-1.91-2-5.54-4.57-8.46-4.57s-.65,2.95.37,4c1.91,1.95,5.54,4.58,8.46,4.58Z"/><path class="cls-9" d="M339.82,135.48c3.24,0,4.31-3.23,3.06-5.76-1.56-3.18-5.43-4.65-8.74-4.65s-4.3,3.24-3.06,5.77c1.56,3.18,5.43,4.64,8.74,4.64Z"/><path class="cls-9" d="M320.13,79.67c2.84,0-.57-5.21-1.09-5.87-1.76-2.21-4.51-4.65-7.49-4.65s.57,5.21,1.09,5.86c1.76,2.22,4.51,4.66,7.49,4.66Z"/><path class="cls-9" d="M303.94,118.28c3,0,3.85-2.34,2.41-4.7-1.66-2.72-5.7-4.52-8.8-4.52s-3.85,2.34-2.42,4.69c1.66,2.73,5.7,4.53,8.81,4.53Z"/><path class="cls-9" d="M27.83,96.12c7,0,2.6-13.22-3.84-13.22-7,0-2.6,13.22,3.84,13.22Z"/><path class="cls-9" d="M11.9,124.86a15.69,15.69,0,0,0,9-3.41c.93-.71,4.1-3.87.93-3.87a15.74,15.74,0,0,0-9,3.4c-.93.72-4.09,3.88-.92,3.88Z"/><path class="cls-9" d="M48,119.47c3.22,0,7.07-1.23,9.1-3.91,1.58-2.1,1.06-4.67-2-4.67-3.22,0-7.07,1.23-9.1,3.9-1.58,2.11-1.06,4.68,2,4.68Z"/><path class="cls-9" d="M48.17,86.53c2.61,0,6.35-1.41,5.74-4.63s-5.29-4.51-8-4.51S39.59,78.79,40.2,82s5.28,4.52,8,4.52Z"/><path class="cls-9" d="M262.65,107.23c3.36,0,9.16-1.66,11.09-4.66,2.11-3.26-2.05-3.6-4.37-3.6-3.36,0-9.16,1.66-11.09,4.66-2.11,3.26,2.05,3.6,4.37,3.6Z"/><path class="cls-9" d="M259.81,132.16c3.61,0,9.17-1.39,11.06-4.84s-1.76-5-4.7-5c-3.61,0-9.17,1.39-11.06,4.85s1.76,5,4.7,5Z"/><path class="cls-9" d="M161.28,122.23a19.76,19.76,0,0,0,11.52-4.5c2.47-2.17,1.91-3.56-1.38-3.56a19.77,19.77,0,0,0-11.53,4.5c-2.46,2.17-1.9,3.56,1.39,3.56Z"/><path class="cls-9" d="M163.15,82.25c2.66,0,7.85-.33,7.17-4.23-.61-3.5-7-5.42-9.84-5.42-2.66,0-7.85.33-7.17,4.24.61,3.5,7,5.41,9.84,5.41Z"/><path class="cls-9" d="M33.93,143.22c4,0,8.16-2.36,10.9-5.11,1.33-1.33,4.29-5.67.25-5.67s-8.17,2.36-10.9,5.11c-1.33,1.33-4.29,5.67-.25,5.67Z"/><path class="cls-9" d="M52,58.84c3.28,0,8.53-2.3,8.32-6.21-.22-4.24-6.06-4.94-9.13-4.94-3.28,0-8.53,2.3-8.32,6.21.22,4.25,6.06,4.94,9.13,4.94Z"/></g></g></g></svg>